<?xml version="1.0" encoding="UTF-8"?>
<svg version="1.1" xmlns="http://www.w3.org/2000/svg" width="3238" height="685">
<path d="M0 0 C5.72635844 5.08180696 10.64191142 10.40102377 15.71875 16.203125 C16.04875 2.673125 16.37875 -10.856875 16.71875 -24.796875 C50.37875 -24.796875 84.03875 -24.796875 118.71875 -24.796875 C118.76289004 19.72243266 118.79979946 64.24171958 118.82088066 108.76104288 C118.82338189 114.0240449 118.82597056 119.28704688 118.82861328 124.55004883 C118.82940021 126.12161758 118.82940021 126.12161758 118.83020304 127.7249352 C118.83889157 144.66087254 118.85465295 161.59679623 118.87305559 178.53272549 C118.89179791 195.92709727 118.90287586 213.32146192 118.90692699 230.71584338 C118.90966308 241.43801486 118.91828617 252.16014773 118.93458293 262.88230731 C118.94520335 270.24766422 118.94833925 277.61300134 118.94575275 284.97836534 C118.94447929 289.21962866 118.94634883 293.46082477 118.95716095 297.70207596 C119.00677381 318.18074103 118.6904559 338.2303377 114.59375 358.390625 C114.27833252 359.94801392 114.27833252 359.94801392 113.95654297 361.53686523 C106.02831495 398.67627118 88.5035468 430.5033951 62.71875 458.203125 C62.04457031 458.94304687 61.37039063 459.68296875 60.67578125 460.4453125 C28.26993154 494.61433227 -25.03740628 509.08217322 -70.61820984 510.43617249 C-110.2679565 511.36944529 -148.08424028 505.20637835 -183.28125 486.203125 C-184.18351318 485.72190186 -184.18351318 485.72190186 -185.10400391 485.23095703 C-205.16689058 474.45816623 -224.57818492 459.793013 -238.59375 441.703125 C-239.05885986 441.10419434 -239.52396973 440.50526367 -240.00317383 439.88818359 C-248.88140318 428.3120667 -256.0377741 416.37869547 -262.28125 403.203125 C-262.6834375 402.45417969 -263.085625 401.70523437 -263.5 400.93359375 C-264.28125 399.203125 -264.28125 399.203125 -264.28125 396.203125 C-263.44803223 395.76145996 -262.61481445 395.31979492 -261.75634766 394.86474609 C-247.45474949 387.28232197 -233.15584182 379.69547032 -218.90625 372.015625 C-217.36155029 371.18369629 -217.36155029 371.18369629 -215.78564453 370.33496094 C-210.79148758 367.64297519 -205.80127263 364.94396067 -200.81771851 362.23240662 C-198.39192198 360.91321554 -195.96446014 359.597107 -193.5368042 358.28134155 C-191.81534556 357.34663793 -190.09636628 356.40737266 -188.37744141 355.46801758 C-187.34538574 354.90880615 -186.31333008 354.34959473 -185.25 353.7734375 C-184.33669922 353.27602051 -183.42339844 352.77860352 -182.48242188 352.26611328 C-180.28125 351.203125 -180.28125 351.203125 -178.28125 351.203125 C-177.724375 352.31429688 -177.1675 353.42546875 -176.59375 354.5703125 C-172.21866727 363.15908215 -167.84571554 371.05652761 -161.28125 378.203125 C-160.19457031 379.42708984 -160.19457031 379.42708984 -159.0859375 380.67578125 C-140.80741823 400.19096601 -113.82891197 410.40286629 -87.43359375 411.42578125 C-61.77336624 412.04441901 -33.42159547 407.78585809 -13.84375 389.765625 C-11.95015919 387.94503187 -10.1164407 386.08439877 -8.28125 384.203125 C-7.54261719 383.47351563 -6.80398438 382.74390625 -6.04296875 381.9921875 C11.35173086 363.82063722 15.9424559 339.88351187 15.78125 315.640625 C15.77448242 313.69833008 15.77448242 313.69833008 15.76757812 311.71679688 C15.75587601 308.545524 15.73948113 305.37434954 15.71875 302.203125 C15.07550781 302.89277344 14.43226563 303.58242188 13.76953125 304.29296875 C-11.43536454 330.50462214 -47.44660849 342.27033607 -83.28125 343.203125 C-84.00860352 343.22890625 -84.73595703 343.2546875 -85.48535156 343.28125 C-136.65279338 344.94862081 -182.89405895 328.19798091 -220.28125 293.203125 C-221.23 292.32011719 -222.17875 291.43710937 -223.15625 290.52734375 C-246.86331348 267.962883 -261.26912935 237.88420243 -268.28125 206.203125 C-268.49297852 205.25163574 -268.70470703 204.30014648 -268.92285156 203.31982422 C-272.20162861 187.71315722 -272.66928836 172.21366271 -272.71875 156.328125 C-272.72501404 155.387341 -272.73127808 154.44655701 -272.73773193 153.4772644 C-272.95401023 102.10892715 -255.23659969 55.66143646 -219.078125 18.98144531 C-192.32606012 -7.49437542 -157.36093516 -24.18621568 -120.28125 -29.796875 C-119.63051514 -29.8985498 -118.97978027 -30.00022461 -118.30932617 -30.10498047 C-76.91461517 -35.65328602 -32.17008274 -27.75533391 0 0 Z M-148.96875 98.015625 C-165.44943841 116.96261361 -169.7323998 141.79698838 -168.28125 166.203125 C-166.04848166 191.07500309 -154.43871084 212.20528481 -135.59375 228.453125 C-113.93540321 244.91073133 -85.92898118 249.66705114 -59.43359375 246.25341797 C-35.9627669 242.76526789 -14.80377942 231.11767766 -0.28125 212.203125 C15.26969161 190.36008333 19.50718762 164.97781762 16.2578125 138.62109375 C12.76367606 119.32112834 3.32290255 104.00079323 -10.28125 90.203125 C-11.01214844 89.45933594 -11.74304687 88.71554687 -12.49609375 87.94921875 C-29.19206749 72.06161618 -52.47382574 65.57991303 -75.03125 65.765625 C-76.3423877 65.77392334 -77.65352539 65.78222168 -79.00439453 65.79077148 C-107.5271623 66.28533509 -129.42754875 77.34832063 -148.96875 98.015625 Z " fill="#FFFFFF" transform="translate(2721.28125,174.796875)"/>
<path d="M0 0 C33.99 0 67.98 0 103 0 C103 170.94 103 341.88 103 518 C69.01 518 35.02 518 0 518 C-0.33 505.79 -0.66 493.58 -1 481 C-2.65 482.98 -4.3 484.96 -6 487 C-31.73414523 510.97669141 -68.10965215 523.97506934 -103 525 C-103.69754395 525.02578125 -104.39508789 525.0515625 -105.11376953 525.078125 C-157.300837 526.80653129 -203.68287467 509.18338274 -242 474 C-242.84046875 473.23171875 -243.6809375 472.4634375 -244.546875 471.671875 C-279.79868515 437.92014188 -295.04873437 388.73281768 -296.125 341.02734375 C-296.84642529 293.81218026 -285.48273331 246.35054549 -254 210 C-253.31679687 209.20722656 -252.63359375 208.41445312 -251.9296875 207.59765625 C-221.00066349 172.51150535 -178.53172374 147.08963356 -131 144 C-98.48319855 142.63803973 -68.85875798 146.38626551 -39 160 C-38.05471436 160.42732422 -38.05471436 160.42732422 -37.09033203 160.86328125 C-23.10574103 167.26877235 -11.83172746 176.16827254 -1 187 C-0.67 125.29 -0.34 63.58 0 0 Z M-125 244 C-125.64001953 244.19867676 -126.28003906 244.39735352 -126.93945312 244.60205078 C-141.37316049 249.20305349 -153.08507727 256.40499742 -164 267 C-164.68578125 267.61230469 -165.3715625 268.22460938 -166.078125 268.85546875 C-181.01477543 282.64540782 -190.1766927 304.50634055 -191.12402344 324.63525391 C-191.90393134 353.76625827 -186.76094686 379.10655262 -166.234375 400.765625 C-165.49703125 401.50296875 -164.7596875 402.2403125 -164 403 C-163.30390625 403.69609375 -162.6078125 404.3921875 -161.890625 405.109375 C-143.15058477 422.75510631 -117.53975049 429.47393364 -92.28125 429.1484375 C-64.06859598 427.87215077 -40.68390604 417.61781521 -21.1875 397.125 C-2.79786597 375.83351546 2.33480512 350.37068127 1 323 C-1.29884093 298.7207427 -14.14468859 276.30579803 -32.73388672 260.80419922 C-50.77441412 246.6139545 -72.0473739 240.58743805 -94.75 240.6875 C-95.4139679 240.68965515 -96.07793579 240.6918103 -96.76202393 240.69403076 C-106.53221293 240.74496163 -115.6219538 241.05547128 -125 244 Z " fill="#FFFFFF" transform="translate(2331,0)"/>
<path d="M0 0 C3.49928081 3.11607426 6.89750592 6.28813092 10.2109375 9.6015625 C10.5409375 -2.6084375 10.8709375 -14.8184375 11.2109375 -27.3984375 C45.2009375 -27.3984375 79.1909375 -27.3984375 114.2109375 -27.3984375 C114.2109375 94.0415625 114.2109375 215.4815625 114.2109375 340.6015625 C80.2209375 340.6015625 46.2309375 340.6015625 11.2109375 340.6015625 C10.8809375 328.3915625 10.5509375 316.1815625 10.2109375 303.6015625 C6.7459375 307.5615625 6.7459375 307.5615625 3.2109375 311.6015625 C0.75597702 313.69635618 -1.63360784 315.64284863 -4.2265625 317.5390625 C-4.91903076 318.04848389 -5.61149902 318.55790527 -6.32495117 319.08276367 C-27.81795324 334.58834266 -53.49063091 343.59802317 -79.7890625 346.6015625 C-80.68753906 346.71242188 -81.58601562 346.82328125 -82.51171875 346.9375 C-129.87683017 351.86720217 -178.30172898 339.19192322 -215.7890625 309.6015625 C-219.23488015 306.70905499 -222.51981186 303.68985831 -225.7890625 300.6015625 C-227.0978227 299.49296563 -228.41022609 298.38865276 -229.7265625 297.2890625 C-264.81732521 266.41762998 -281.21431132 219.77109918 -284.5390625 174.2265625 C-284.64701105 171.68582225 -284.72981846 169.14390473 -284.7890625 166.6015625 C-284.8197583 165.54122803 -284.8197583 165.54122803 -284.85107422 164.45947266 C-286.21220361 112.74780483 -271.60647349 63.46359839 -236.18359375 25.125 C-235.39339844 24.29226562 -234.60320312 23.45953125 -233.7890625 22.6015625 C-232.88542969 21.64507812 -231.98179687 20.68859375 -231.05078125 19.703125 C-223.85921505 12.22877834 -216.14557384 5.7337941 -207.7890625 -0.3984375 C-207.23476563 -0.81303223 -206.68046875 -1.22762695 -206.109375 -1.65478516 C-149.19863551 -43.78676747 -55.26328292 -47.52332733 0 0 Z M-116.7890625 67.6015625 C-117.44890137 67.81586914 -118.10874023 68.03017578 -118.78857422 68.25097656 C-132.56669185 72.88074756 -143.35434328 80.6411487 -153.7890625 90.6015625 C-154.40265625 91.14039063 -155.01625 91.67921875 -155.6484375 92.234375 C-170.27482289 105.58598368 -178.986768 127.80924387 -179.9152832 147.2434082 C-180.64173117 175.0905803 -175.95698203 200.08728747 -156.7890625 221.6015625 C-155.80873047 222.72304688 -155.80873047 222.72304688 -154.80859375 223.8671875 C-138.28249786 241.60250992 -113.74403394 250.72649505 -89.7890625 251.6015625 C-88.93183594 251.653125 -88.07460938 251.7046875 -87.19140625 251.7578125 C-60.83374895 252.64752245 -35.61993844 243.93901581 -16.24658203 225.98486328 C0.87856461 209.73175091 11.71976349 187.18824485 12.4140625 163.44921875 C12.81479061 134.06925433 4.98800665 110.0241716 -15.7890625 88.6015625 C-37.04191943 68.29260036 -62.97332256 62.71502949 -91.5 63.25390625 C-100.30932024 63.5697377 -108.42705098 64.83736549 -116.7890625 67.6015625 Z " fill="#FFFFFF" transform="translate(594.7890625,177.3984375)"/>
<path d="M0 0 C0.95261719 0.18804199 1.90523437 0.37608398 2.88671875 0.56982422 C34.30181247 7.02223808 61.72682024 20.89936212 85 43 C85.95777344 43.90492188 86.91554688 44.80984375 87.90234375 45.7421875 C95.37151004 52.92844914 101.89059274 60.6335125 108 69 C108.41459473 69.56493164 108.82918945 70.12986328 109.25634766 70.71191406 C143.4737135 117.98965379 145 166.13413717 145 225 C7.39 225.495 7.39 225.495 -133 226 C-121.71578227 253.40452878 -108.17400464 269.91138206 -81.0703125 281.22265625 C-52.77163509 291.53090024 -17.31387004 289.75894486 9.96142578 277.08886719 C18.50210424 272.83068787 25.83142998 267.2568282 33 261 C33.71800781 260.42636719 34.43601562 259.85273438 35.17578125 259.26171875 C40.05155547 255.29482671 43.56390558 250.80659897 47.140625 245.6484375 C48.99491072 243.00724902 50.97402789 240.51067202 53 238 C69.27843822 247.62646772 85.53401966 257.28559941 101.68383789 267.12664795 C111.06891026 272.84465909 120.49945012 278.47610886 130 284 C122.20542857 309.07975529 97.64977702 329.35981815 77 344 C76.38624512 344.44778809 75.77249023 344.89557617 75.14013672 345.35693359 C30.34945033 377.9750494 -30.2518824 383.2046025 -83.625 375.1875 C-121.68472127 369.00396012 -156.36423919 353.06790271 -184 326 C-184.79664062 325.25363281 -185.59328125 324.50726563 -186.4140625 323.73828125 C-193.02527339 317.41908498 -198.57358062 310.33589549 -204 303 C-204.63639404 302.14607666 -204.63639404 302.14607666 -205.28564453 301.27490234 C-229.34093797 268.53375852 -238.47562956 228.29041575 -238.3125 188.3125 C-238.31067719 187.38524109 -238.30885437 186.45798218 -238.30697632 185.50262451 C-238.26268305 172.12663381 -237.90366772 159.10651589 -235 146 C-234.75056641 144.7948877 -234.75056641 144.7948877 -234.49609375 143.56542969 C-224.2257234 94.66705528 -194.65692556 53.57099886 -153.06738281 26.32568359 C-109.06094283 -1.89290038 -51.04299542 -10.25919236 0 0 Z M-112.3125 111.8125 C-119.43664505 119.39429891 -131 133.31272404 -131 144 C-74.9 144 -18.8 144 39 144 C34.18973765 128.36664736 28.98612143 119.25446061 18 108 C16.99453125 106.88431641 16.99453125 106.88431641 15.96875 105.74609375 C1.50943167 90.09204361 -19.11712873 85.15536419 -39.6015625 84.12548828 C-66.71083791 83.18389846 -92.48560947 93.20270572 -112.3125 111.8125 Z " fill="#FFFFFF" transform="translate(3093,147)"/>
<path d="M0 0 C0.95261719 0.18804199 1.90523437 0.37608398 2.88671875 0.56982422 C34.30181247 7.02223808 61.72682024 20.89936212 85 43 C85.95777344 43.90492188 86.91554688 44.80984375 87.90234375 45.7421875 C95.37151004 52.92844914 101.89059274 60.6335125 108 69 C108.41459473 69.56493164 108.82918945 70.12986328 109.25634766 70.71191406 C143.4737135 117.98965379 145 166.13413717 145 225 C7.39 225.495 7.39 225.495 -133 226 C-121.71578227 253.40452878 -108.17400464 269.91138206 -81.0703125 281.22265625 C-52.77163509 291.53090024 -17.31387004 289.75894486 9.96142578 277.08886719 C18.50210424 272.83068787 25.83142998 267.2568282 33 261 C33.71800781 260.42636719 34.43601562 259.85273438 35.17578125 259.26171875 C40.05155547 255.29482671 43.56390558 250.80659897 47.140625 245.6484375 C48.99491072 243.00724902 50.97402789 240.51067202 53 238 C69.27843822 247.62646772 85.53401966 257.28559941 101.68383789 267.12664795 C111.06891026 272.84465909 120.49945012 278.47610886 130 284 C122.20542857 309.07975529 97.64977702 329.35981815 77 344 C76.38624512 344.44778809 75.77249023 344.89557617 75.14013672 345.35693359 C30.34945033 377.9750494 -30.2518824 383.2046025 -83.625 375.1875 C-121.68472127 369.00396012 -156.36423919 353.06790271 -184 326 C-184.79664063 325.25363281 -185.59328125 324.50726563 -186.4140625 323.73828125 C-193.02527339 317.41908498 -198.57358062 310.33589549 -204 303 C-204.63639404 302.14607666 -204.63639404 302.14607666 -205.28564453 301.27490234 C-229.34093797 268.53375852 -238.47562956 228.29041575 -238.3125 188.3125 C-238.31067719 187.38524109 -238.30885437 186.45798218 -238.30697632 185.50262451 C-238.26268305 172.12663381 -237.90366772 159.10651589 -235 146 C-234.75056641 144.7948877 -234.75056641 144.7948877 -234.49609375 143.56542969 C-224.2257234 94.66705528 -194.65692556 53.57099886 -153.06738281 26.32568359 C-109.06094283 -1.89290038 -51.04299542 -10.25919236 0 0 Z M-112.3125 111.8125 C-119.43664505 119.39429891 -131 133.31272404 -131 144 C-74.9 144 -18.8 144 39 144 C34.18973765 128.36664736 28.98612143 119.25446061 18 108 C16.99453125 106.88431641 16.99453125 106.88431641 15.96875 105.74609375 C1.50943167 90.09204361 -19.11712873 85.15536419 -39.6015625 84.12548828 C-66.71083791 83.18389846 -92.48560947 93.20270572 -112.3125 111.8125 Z " fill="#FFFFFF" transform="translate(1317,147)"/>
<path d="M0 0 C38.61 0 77.22 0 117 0 C127.15437035 28.40280403 137.29605088 56.8094121 147.37225342 85.23997498 C155.18182949 107.2746293 163.03037454 129.29487743 170.9309082 151.29711914 C171.70136097 153.44286164 172.47178733 155.58861362 173.2421875 157.734375 C173.62442978 158.79901474 174.00667206 159.86365448 174.40049744 160.96055603 C177.40388653 169.3297721 180.39534513 177.70321667 183.3828125 186.078125 C183.83716526 187.35161448 184.29152112 188.62510284 184.74588013 189.89859009 C186.91217845 195.97081237 189.07721023 202.04348375 191.24072266 208.11669922 C192.0302388 210.330416 192.81978798 212.544121 193.609375 214.7578125 C193.9503421 215.71625061 194.2913092 216.67468872 194.64260864 217.66217041 C198.02315363 227.13451867 201.51373321 236.56618587 205 246 C213.30473725 221.90023301 221.44752866 197.74755408 229.5 173.5625 C229.84661556 172.52159021 229.84661556 172.52159021 230.20023346 171.45965195 C233.80278723 160.64064319 237.40174622 149.82043949 241 139 C244.83138058 127.47851644 248.66360353 115.95731453 252.5 104.4375 C252.73156925 103.74215023 252.9631385 103.04680046 253.20172501 102.33037949 C261.02291553 78.8482851 268.94628648 55.40347412 277 32 C280.63 21.44 284.26 10.88 288 0 C327.6 0 367.2 0 408 0 C406.22888941 5.31333176 404.49537831 10.45024644 402.43261719 15.62670898 C402.19156313 16.23364814 401.95050907 16.84058729 401.70215034 17.46591854 C400.90275976 19.47692836 400.09982249 21.48650176 399.296875 23.49609375 C398.7139018 24.96057541 398.13115518 26.42514727 397.5486145 27.88980103 C396.28679185 31.06092219 395.02337861 34.23140327 393.75872803 37.40139771 C391.70405105 42.55169823 389.65285231 47.70337993 387.60205078 52.85522461 C384.62898093 60.32297737 381.65430457 67.79008847 378.67871094 75.25683594 C373.97197641 87.06809616 369.2706142 98.88149112 364.5703125 110.6953125 C363.77086594 112.70460085 362.97141728 114.71388836 362.17196655 116.72317505 C360.96234108 119.76336802 359.75271605 122.80356116 358.54310417 125.84375954 C354.41497183 136.21909228 350.28564418 146.5939492 346.15626144 156.96878433 C336.60985335 180.95365288 327.06599711 204.93953609 317.52338409 228.92591476 C316.37389131 231.8152868 315.22439168 234.70465611 314.07489014 237.59402466 C311.01193409 245.29302746 307.94899016 252.99203508 304.88607788 260.6910553 C299.89581743 273.23471034 294.90545441 285.77832457 289.91498756 298.32189751 C288.75742311 301.23144749 287.59986432 304.14099973 286.44230652 307.05055237 C282.9777405 315.75881242 279.51313174 324.46705546 276.04833889 333.17522526 C274.12985521 337.99701444 272.2114037 342.81881642 270.29296875 347.640625 C269.91275385 348.59625776 269.53253895 349.55189053 269.14080238 350.53648186 C263.61614919 364.42233873 258.09333042 378.30892422 252.57148552 392.19589806 C248.98554046 401.21408453 245.39916247 410.23209882 241.8125 419.25 C241.42697086 420.21933346 241.04144173 421.18866692 240.64422989 422.18737411 C232.40916005 442.89203914 224.16878186 463.59455172 215.8984375 484.28515625 C215.46227049 485.37635175 215.46227049 485.37635175 215.01729202 486.4895916 C209.35146453 500.66237149 203.67438002 514.8306417 198 529 C158.07 529 118.14 529 77 529 C77.84948442 523.9030935 79.11015918 519.92454794 81.1484375 515.28125 C81.63418495 514.151427 81.63418495 514.151427 82.12974548 512.9987793 C82.83454586 511.36055591 83.54219232 509.7235547 84.25234985 508.08764648 C86.20549336 503.58575875 88.13499608 499.0737445 90.06640625 494.5625 C90.47229477 493.61564331 90.87818329 492.66878662 91.29637146 491.6932373 C95.72876483 481.33408614 100.02601766 470.92017806 104.3125 460.5 C105.8992538 456.64563317 107.4865576 452.79149317 109.07421875 448.9375 C109.4726297 447.97021973 109.87104065 447.00293945 110.28152466 446.00634766 C116.22311443 431.5925488 122.2389483 417.20952423 128.24940491 402.82434082 C129.39865137 400.06820908 130.54173613 397.30957684 131.68457031 394.55078125 C133.29902099 390.65944329 134.95054816 386.78596022 136.62011719 382.91796875 C137.46302174 380.93495156 138.30579922 378.95188035 139.1484375 376.96875 C139.54995026 376.0564563 139.95146301 375.1441626 140.36514282 374.20422363 C143.82872642 365.97793465 142.27816426 361.17785175 139.03515625 353.02734375 C138.73123962 352.2502858 138.427323 351.47322784 138.11419678 350.67262268 C137.10284831 348.09189387 136.08283329 345.51468843 135.0625 342.9375 C134.33322888 341.08347041 133.60431403 339.22930065 132.87573242 337.375 C127.1750823 322.88835257 121.39539957 308.43307505 115.60058594 293.98388672 C108.77682694 276.96642455 102.00226013 259.92962838 95.23629379 242.88912964 C94.30899472 240.55367174 93.38163324 238.21823863 92.45425415 235.8828125 C89.9156583 229.48980322 87.37713363 223.0967657 84.83882141 216.7036438 C78.37706879 200.42911206 71.90958992 184.15685768 65.44161987 167.88479614 C62.20560843 159.74361452 58.97000564 151.60227048 55.734375 143.4609375 C55.41488325 142.65704905 55.0953915 141.85316059 54.76621819 141.02491188 C53.15525475 136.97148547 51.54429857 132.91805618 49.93334961 128.86462402 C48.64186445 125.61502347 47.3503591 122.36543095 46.05883789 119.11584473 C44.12771133 114.25693941 42.196654 109.39800659 40.265625 104.5390625 C39.95040579 103.74591015 39.63518658 102.9527578 39.31041527 102.13557053 C35.91687378 93.5966381 32.52419395 85.05736513 29.1340332 76.51708984 C28.25407239 74.30042844 27.37411042 72.0837675 26.49414635 69.86710739 C25.9198468 68.42040197 25.3455681 66.97368828 24.77131081 65.52696609 C21.32500048 56.84520771 17.87174504 48.16627414 14.40823364 39.49136353 C12.58290328 34.91806135 10.76125137 30.34329979 8.94030762 25.76824951 C8.11460365 23.6965878 7.28709073 21.62564603 6.4576416 19.55548096 C5.34608969 16.78097329 4.24065152 14.00410854 3.13671875 11.2265625 C2.81332016 10.42420166 2.48992157 9.62184082 2.15672302 8.79516602 C0.94178131 5.72326387 0 3.33516294 0 0 Z " fill="#FFFFFF" transform="translate(712,150)"/>
<path d="M0 0 C34.65 0 69.3 0 105 0 C105 130.35 105 260.7 105 395 C177.93 395 250.86 395 326 395 C326 426.35 326 457.7 326 490 C218.42 490 110.84 490 0 490 C0 328.3 0 166.6 0 0 Z " fill="#FFFFFF" transform="translate(0,28)"/>
<path d="M0 0 C33.99 0 67.98 0 103 0 C103.33 19.8 103.66 39.6 104 60 C113.1884375 55.3903125 113.1884375 55.3903125 122.5625 50.6875 C134.76172638 44.57780887 146.96934063 38.5052105 159.30297852 32.6706543 C166.49534669 29.26310596 173.60925418 25.71115277 180.71728516 22.1315918 C188.39999687 18.27368729 196.14503582 14.55512054 203.91088867 10.86791992 C210.51236287 7.72923304 217.05264057 4.4915832 223.55078125 1.14453125 C226 0 226 0 228 0 C228 31.35 228 62.7 228 95 C203.93106618 108.75367647 203.93106618 108.75367647 194.75 113.875 C192.6301938 115.05986984 190.51040258 116.24476646 188.390625 117.4296875 C187.33423828 118.01975586 186.27785156 118.60982422 185.18945312 119.21777344 C179.95748046 122.1413344 174.72889272 125.07093521 169.5 128 C167.41668332 129.16669641 165.33334998 130.33336306 163.25 131.5 C162.21875 132.0775 161.1875 132.655 160.125 133.25 C150.75 138.5 150.75 138.5 147.61962891 140.25292969 C145.55411024 141.40967187 143.48867931 142.56657071 141.42333984 143.72363281 C136.53327146 146.46293729 131.64230847 149.20060397 126.74822998 151.93273926 C124.99925749 152.90920421 123.25060318 153.886239 121.50195312 154.86328125 C119.29547831 156.09604855 117.08846966 157.32786098 114.88085938 158.55859375 C113.89150391 159.11160156 112.90214844 159.66460937 111.8828125 160.234375 C110.57401123 160.96479004 110.57401123 160.96479004 109.23876953 161.70996094 C107.45209906 162.73948839 105.71574302 163.85617132 104 165 C103.6933676 167.72269292 103.58441494 170.22065381 103.60127258 172.94717407 C103.59462576 173.77784405 103.58797893 174.60851403 103.58113068 175.46435583 C103.56239367 178.2636319 103.56511311 181.06248455 103.56762695 183.86181641 C103.55861631 185.86209217 103.54829083 187.86236239 103.53674316 189.86262512 C103.50906502 195.30656235 103.49987401 200.75039513 103.49388909 206.19439363 C103.48453347 211.87861079 103.45833248 217.56274906 103.43388367 223.24691772 C103.39013735 234.01683121 103.3616404 244.78672945 103.33856028 255.55670488 C103.30650567 270.10583565 103.2510203 284.65487557 103.19681454 299.20393753 C103.1119968 322.13593144 103.05859306 345.06788939 103 368 C69.01 368 35.02 368 0 368 C0 246.56 0 125.12 0 0 Z " fill="#FFFFFF" transform="translate(1481,150)"/>
<path d="M0 0 C33.10491402 -0.08830513 66.20971305 -0.16211416 99.31470954 -0.20426132 C103.22966334 -0.2092637 107.14461689 -0.21444103 111.05957031 -0.21972656 C111.83891442 -0.2207758 112.61825852 -0.22182505 113.42121911 -0.22290608 C126.01370918 -0.24027601 138.60612564 -0.27179473 151.19857216 -0.30861118 C164.13502679 -0.34611587 177.07144307 -0.36825591 190.00794983 -0.37635398 C197.9801713 -0.38182208 205.95218468 -0.39904535 213.92434204 -0.43166587 C220.05396643 -0.4554581 226.18343465 -0.45779595 232.31309891 -0.45243073 C234.81553039 -0.45352535 237.31797023 -0.46140377 239.82035446 -0.4768219 C253.1711387 -0.55500159 265.24592701 -0.21747299 278 4 C279.14759796 4.36768368 280.29519592 4.73536736 281.47756958 5.11419296 C304.71471737 12.88551248 322.51061342 30.71275345 333.97021484 51.92773438 C340.95104723 65.97545967 343 79.29190169 343 95 C229.81 95 116.62 95 0 95 C0 63.65 0 32.3 0 0 Z " fill="#FFFFFF" transform="translate(1728,422)"/>
<path d="M0 0 C113.19 0 226.38 0 343 0 C343 11.37577524 342.23137016 19.56744464 339 30 C338.66097656 31.10214844 338.32195313 32.20429688 337.97265625 33.33984375 C329.68246332 57.20733869 311.41927778 75.85903468 289 87 C276.6112107 92.40131178 264.38751132 95.32014134 250.85092163 95.24050903 C249.23326918 95.24307231 249.23326918 95.24307231 247.58293688 95.24568737 C243.99321051 95.24896423 240.40367381 95.23800829 236.81396484 95.22705078 C234.23124191 95.22648628 231.64851865 95.22680399 229.0657959 95.22793579 C223.51763342 95.22898108 217.96951823 95.22274185 212.42136765 95.21146011 C204.39982343 95.1951596 196.37830192 95.18999246 188.35674293 95.18748413 C175.34019199 95.18311415 162.3236662 95.16982401 149.30712891 95.15087891 C136.66780726 95.13250204 124.02849247 95.11835439 111.38916016 95.10986328 C110.60919455 95.10933783 109.82922894 95.10881239 109.02562802 95.10827102 C105.11250773 95.10566082 101.1993874 95.10313343 97.28626704 95.10064721 C64.85748906 95.07993642 32.4287579 95.0430784 0 95 C0 63.65 0 32.3 0 0 Z " fill="#FFFFFF" transform="translate(1728,150)"/>
<path d="M0 0 C40.23138438 -0.16121214 40.23138438 -0.16121214 57.16015625 -0.1953125 C68.824128 -0.2189972 80.48798371 -0.24675876 92.15185547 -0.30175781 C100.64864207 -0.34180367 109.14533403 -0.36747479 117.64221239 -0.37635398 C122.13538877 -0.38153887 126.62829457 -0.39360251 131.12138367 -0.42292023 C135.36330231 -0.4503709 139.60484277 -0.45838615 143.84684181 -0.45243073 C145.39142231 -0.45351787 146.93601743 -0.46129338 148.48052025 -0.4768219 C174.00911547 -0.72057526 198.17022788 8.76089102 216.6171875 26.51953125 C235.20030829 45.86425535 244 68.31083753 244 95 C163.48 95 82.96 95 0 95 C0 63.65 0 32.3 0 0 Z " fill="#FFFFFF" transform="translate(1728,286)"/>
</svg>
