<svg xmlns="http://www.w3.org/2000/svg" viewBox="0 0 149 30"
     class="Logo_logo__T21r4 logo Header_logo__X2AKx ng-star-inserted">
    <defs>
        <linearGradient id="grd3-right">
            <stop offset="0" stop-color="rgb(137,20,229)"></stop>
            <stop offset=".5" stop-color="rgb(186,156,49)"></stop>
            <stop offset="1" stop-color="rgb(255,255,255)"></stop>
        </linearGradient>
        <linearGradient id="grd2-right">
            <stop offset="0" stop-color="rgb(137,20,229)"></stop>
            <stop offset="1" stop-color="rgb(186,156,49)"></stop>
        </linearGradient>
    </defs>
    <path d="M93.213 6.665H78.314v3.828h12.361c.572-1.404 1.437-2.697 2.538-3.828z" fill="url(#grd3-right)"></path>
    <path d="M5.653 17.757h8.375v4.426H.456V-.077h5.197v17.834zM26.387 7.095h4.899v15.088h-4.899v-1.906c-1.059 1.422-2.946 2.294-4.899 2.294-4.337 0-7.382-3.199-7.382-7.916s3.046-7.948 7.448-7.948c1.887 0 3.774.808 4.833 2.197V7.095zm-.166 7.56c0-1.971-1.589-3.522-3.575-3.522-2.086 0-3.542 1.583-3.542 3.522s1.457 3.489 3.575 3.489c1.986 0 3.542-1.648 3.542-3.489zm17.391-7.56h5.264l-9.534 22.519h-5.23l3.807-9.24-6.091-13.279h5.429l3.211 7.819 3.145-7.819zm20.017 8.95H52.308c.463 1.454 1.755 2.359 3.608 2.359a5.94 5.94 0 0 0 3.906-1.551l2.516 3.102c-1.523 1.615-4.171 2.617-6.753 2.617-4.899 0-8.342-3.296-8.342-7.883 0-4.911 3.873-7.98 8.309-7.98s8.144 3.037 8.144 7.625c0 .42-.033.969-.066 1.712zm-4.8-2.811c-.066-1.486-1.423-2.488-3.178-2.488-1.457 0-2.88.678-3.377 2.488h6.554zM76.164 7.16l-1.159 4.556a4.16 4.16 0 0 0-2.218-.582c-1.92 0-3.509 1.583-3.509 6.042v5.008h-4.899V7.095h4.833v3.199c.894-2.488 2.748-3.586 4.635-3.586.728 0 1.523.065 2.317.452zm27.724-8.271h4.866v23.295h-4.866v-1.68c-1.126 1.454-3.211 2.068-4.8 2.068-3.84 0-7.481-3.069-7.481-7.948s3.641-7.916 7.481-7.916c1.589 0 3.674.614 4.8 2.035v-9.854zm-.199 15.734c0-1.939-1.688-3.489-3.542-3.489s-3.575 1.583-3.575 3.489 1.655 3.522 3.575 3.522 3.542-1.583 3.542-3.522zm18.163-7.528h4.867v13.279c0 6.397-3.443 9.628-9.038 9.628-3.509 0-6.488-2.003-7.713-4.846l4.039-1.583c.562 1.228 2.052 2.229 3.674 2.229 2.549 0 4.171-1.389 4.171-4.846v-.452c-1.158 1.422-3.211 2.068-4.8 2.068-3.84 0-7.481-3.069-7.481-7.948s3.641-7.916 7.481-7.916c1.589 0 3.642.614 4.8 2.035V7.095zm-.198 7.528c0-1.939-1.689-3.489-3.543-3.489s-3.575 1.583-3.575 3.489 1.655 3.522 3.575 3.522 3.543-1.583 3.543-3.522zm22.267 1.422H132.6c.463 1.454 1.754 2.359 3.608 2.359a5.94 5.94 0 0 0 3.907-1.551l2.515 3.102c-1.522 1.615-4.171 2.617-6.753 2.617-4.899 0-8.342-3.296-8.342-7.883 0-4.911 3.873-7.98 8.309-7.98s8.144 3.037 8.144 7.625c0 .42-.033.969-.067 1.712zm-4.8-2.811c-.066-1.486-1.423-2.488-3.178-2.488-1.456 0-2.88.678-3.376 2.488h6.554z"
          fill="rgb(255,255,255)"></path>
    <path d="M89.885 14.475c0-.64.06-1.267.172-1.88H78.316v3.939h11.778c-.135-.67-.207-1.357-.207-2.059h-.002z"
          fill="url(#grd3-right)"></path>
    <path d="M90.633 18.354H78.314v3.828h14.804c-1.081-1.135-1.929-2.425-2.483-3.828h-.002z"
          fill="url(#grd3-right)"></path>
</svg>
